<?xml version="1.0" encoding="iso-8859-1"?>
<!-- Generator: Adobe Illustrator 19.1.1, SVG Export Plug-In . SVG Version: 6.00 Build 0)  -->
<svg version="1.1" id="Layer_1" xmlns="http://www.w3.org/2000/svg" xmlns:xlink="http://www.w3.org/1999/xlink" x="0px" y="0px"
	 viewBox="0 0 80 80" style="enable-background:new 0 0 80 80;" xml:space="preserve">
<g>
	<g>
		<polygon style="fill:#FFEEA3;" points="29.01,67.472 4.5,75.315 4.5,12.365 28.99,4.528 50.99,12.528 75.5,4.685 75.5,67.635 
			51.01,75.472 		"/>
	</g>
	<g>
		<path style="fill:#BA9B48;" d="M28.979,5.057l21.679,7.883l0.321,0.117l0.325-0.104L75,5.37v61.9l-23.979,7.673L29.342,67.06
			l-0.321-0.117l-0.325,0.104L5,74.63v-61.9L28.979,5.057 M76,4l-25,8L29,4L4,12v64l25-8l22,8l25-8V4L76,4z"/>
	</g>
</g>
<path style="fill:#FFFFFF;" d="M51,75l-22-8V5l22,8V75z"/>
<g>
	<path style="fill:#F78F8F;" d="M51.001,64.235C48.695,61.521,36.5,46.614,36.5,35c0-7.995,6.505-14.5,14.5-14.5
		S65.5,27.005,65.5,35C65.5,46.704,53.311,61.532,51.001,64.235z"/>
	<path style="fill:#C74343;" d="M51,21c7.72,0,14,6.28,14,14c0,10.997-10.997,24.877-13.998,28.46C48.003,59.861,37,45.912,37,35
		C37,27.28,43.28,21,51,21 M51,20c-8.284,0-15,6.716-15,15c0,13.104,15,30,15,30s15-16.792,15-30C66,26.716,59.284,20,51,20L51,20z"
		/>
</g>
<g>
	<path style="fill:#F2FAFF;" d="M51,41.5c-3.584,0-6.5-2.916-6.5-6.5s2.916-6.5,6.5-6.5s6.5,2.916,6.5,6.5S54.584,41.5,51,41.5z"/>
	<path style="fill:#C74343;" d="M51,29c3.314,0,6,2.686,6,6s-2.686,6-6,6s-6-2.686-6-6S47.686,29,51,29 M51,28c-3.86,0-7,3.14-7,7
		s3.14,7,7,7s7-3.14,7-7S54.86,28,51,28L51,28z"/>
</g>
</svg>